<svg width="400" height="225" viewBox="0 0 400 225" fill="none" xmlns="http://www.w3.org/2000/svg">
  <rect width="400" height="225" fill="#121212"/>
  <path d="M200 112.5C200 129.897 185.897 144 168.5 144C151.103 144 137 129.897 137 112.5C137 95.103 151.103 81 168.5 81C185.897 81 200 95.103 200 112.5Z" fill="#BB86FC" fill-opacity="0.5"/>
  <path d="M263 112.5C263 129.897 248.897 144 231.5 144C214.103 144 200 129.897 200 112.5C200 95.103 214.103 81 231.5 81C248.897 81 263 95.103 263 112.5Z" fill="#BB86FC" fill-opacity="0.2"/>
  <path d="M137 112.5C137 95.103 151.103 81 168.5 81C185.897 81 200 95.103 200 112.5" stroke="#BB86FC" stroke-width="2"/>
  <path d="M200 112.5C200 95.103 214.103 81 231.5 81C248.897 81 263 95.103 263 112.5" stroke="#BB86FC" stroke-width="2"/>
</svg>
